<svg width="157" height="157" fill="none" xmlns="http://www.w3.org/2000/svg"><path d="M7 3.5a3.5 3.5 0 11-7 0 3.5 3.5 0 017 0zm30 0a3.5 3.5 0 11-7 0 3.5 3.5 0 017 0zm30 0a3.5 3.5 0 11-7 0 3.5 3.5 0 017 0zm30 0a3.5 3.5 0 11-7 0 3.5 3.5 0 017 0zm30 0a3.5 3.5 0 11-7 0 3.5 3.5 0 017 0zm30 0a3.5 3.5 0 11-7 0 3.5 3.5 0 017 0zM7 33.5a3.5 3.5 0 11-7 0 3.5 3.5 0 017 0zm30 0a3.5 3.5 0 11-7 0 3.5 3.5 0 017 0zm30 0a3.5 3.5 0 11-7 0 3.5 3.5 0 017 0zm30 0a3.5 3.5 0 11-7 0 3.5 3.5 0 017 0zm30 0a3.5 3.5 0 11-7 0 3.5 3.5 0 017 0zm30 0a3.5 3.5 0 11-7 0 3.5 3.5 0 017 0zM7 63.5a3.5 3.5 0 11-7 0 3.5 3.5 0 017 0zm30 0a3.5 3.5 0 11-7 0 3.5 3.5 0 017 0zm30 0a3.5 3.5 0 11-7 0 3.5 3.5 0 017 0zm30 0a3.5 3.5 0 11-7 0 3.5 3.5 0 017 0zm30 0a3.5 3.5 0 11-7 0 3.5 3.5 0 017 0zm30 0a3.5 3.5 0 11-7 0 3.5 3.5 0 017 0zM7 93.5a3.5 3.5 0 11-7 0 3.5 3.5 0 017 0zm30 0a3.5 3.5 0 11-7 0 3.5 3.5 0 017 0zm30 0a3.5 3.5 0 11-7 0 3.5 3.5 0 017 0zm30 0a3.5 3.5 0 11-7 0 3.5 3.5 0 017 0zm30 0a3.5 3.5 0 11-7 0 3.5 3.5 0 017 0zm30 0a3.5 3.5 0 11-7 0 3.5 3.5 0 017 0zm-150 30a3.5 3.5 0 11-7 0 3.5 3.5 0 017 0zm30 0a3.5 3.5 0 11-7 0 3.5 3.5 0 017 0zm30 0a3.5 3.5 0 11-7 0 3.5 3.5 0 017 0zm30 0a3.5 3.5 0 11-7 0 3.5 3.5 0 017 0zm30 0a3.5 3.5 0 11-7 0 3.5 3.5 0 017 0zm30 0a3.5 3.5 0 11-7 0 3.5 3.5 0 017 0zm-150 30a3.5 3.5 0 11-7 0 3.5 3.5 0 017 0zm30 0a3.5 3.5 0 11-7 0 3.5 3.5 0 017 0zm30 0a3.5 3.5 0 11-7 0 3.5 3.5 0 017 0zm30 0a3.5 3.5 0 11-7 0 3.5 3.5 0 017 0zm30 0a3.5 3.5 0 11-7 0 3.5 3.5 0 017 0zm30 0a3.5 3.5 0 11-7 0 3.5 3.5 0 017 0z" fill="#FEE354"/></svg>